<!-- Generated by IcoMoon.io -->
<svg version="1.1" xmlns="http://www.w3.org/2000/svg" width="1024" height="1024" viewBox="0 0 1024 1024">
<title></title>
<g id="icomoon-ignore">
</g>
<path fill="#d7182a" d="M311.832 207.213l-311.83 609.471h111.942l311.821-609.471h-111.933zM637.913 207.111v0.098h-110.16v609.52h111.395v-125.287h145.541l63.821 125.233h110.849l-306.489-609.569h-14.962zM639.153 405.63l100.162 196.648h-100.162v-196.648zM331.576 602.799h99.966v-196.897l-99.966 196.897zM285.454 693.757l-62.346 123.136h208.989v-123.136h-146.643zM986.004 761.284h4.253c4.706 0 8.723-1.715 8.723-6.177 0-3.182-2.266-6.355-8.723-6.355-1.884 0-3.204 0.164-4.253 0.307v12.225zM986.004 781.308h-5.724v-36.141c3.040-0.427 5.892-0.871 10.216-0.871 5.47 0 9.087 1.191 11.252 2.76 2.137 1.546 3.319 4.013 3.319 7.47 0 4.759-3.191 7.643-7.079 8.794v0.267c3.177 0.595 5.315 3.471 6.052 8.785 0.849 5.581 1.746 7.781 2.289 8.936h-6.012c-0.884-1.151-1.737-4.466-2.457-9.216-0.898-4.608-3.128-6.355-7.799-6.355h-4.062v15.571zM992.141 735.089c-14.291 0-25.938 12.229-25.938 27.356 0 15.366 11.647 27.484 26.022 27.484 14.398 0.164 25.965-12.118 25.965-27.311 0-15.304-11.576-27.533-25.965-27.533h-0.089zM992.23 730.049c17.753 0 31.773 14.384 31.773 32.395 0 18.264-14.029 32.524-31.862 32.524-17.739 0-32.106-14.255-32.106-32.524 0-18.010 14.367-32.395 32.106-32.395h0.089z"></path>
</svg>
