<?xml version="1.0" encoding="UTF-8"?>
<!DOCTYPE svg PUBLIC "-//W3C//DTD SVG 1.1//EN" "http://www.w3.org/Graphics/SVG/1.1/DTD/svg11.dtd">
<!-- Creator: CorelDRAW 2020 (64-Bit) -->
<svg xmlns="http://www.w3.org/2000/svg" xml:space="preserve" width="0.623346in" height="0.763642in" version="1.1" style="shape-rendering:geometricPrecision; text-rendering:geometricPrecision; image-rendering:optimizeQuality; fill-rule:evenodd; clip-rule:evenodd"
viewBox="0 0 37.38 45.8"
 xmlns:xlink="http://www.w3.org/1999/xlink"
 xmlns:xodm="http://www.corel.com/coreldraw/odm/2003">
 <defs>
  <style type="text/css">
   <![CDATA[
    .fil0 {fill:#D7182A;fill-rule:nonzero}
   ]]>
  </style>
 </defs>
 <g id="Layer_x0020_1">
  <metadata id="CorelCorpID_0Corel-Layer"/>
  <path class="fil0" d="M9.9 9.18c-0.4,0 -0.72,0.32 -0.72,0.72 0,0.87 -0.71,1.58 -1.58,1.58 -0.87,0 -1.58,-0.71 -1.58,-1.58 0,-0.87 0.71,-1.58 1.58,-1.58 0.4,0 0.72,-0.32 0.72,-0.72 0,-0.4 -0.32,-0.72 -0.72,-0.72 -1.66,0 -3.01,1.35 -3.01,3.01 0,1.66 1.35,3.01 3.01,3.01 1.66,0 3.01,-1.35 3.01,-3.01 0,-0.4 -0.32,-0.72 -0.72,-0.72zm25.13 19.9c-0.67,-0.07 -1.33,0.12 -1.86,0.52 -0.42,-0.7 -1.14,-1.2 -1.96,-1.29 -0.67,-0.07 -1.33,0.12 -1.86,0.52 -0.42,-0.7 -1.14,-1.2 -1.96,-1.29 -0.51,-0.05 -1.02,0.05 -1.46,0.27l0 -9.13c0,-0.74 -0.32,-1.45 -0.87,-1.95 -0.55,-0.5 -1.29,-0.74 -2.03,-0.67 -1.32,0.13 -2.36,1.33 -2.36,2.72l0 9.15 -2.11 2.11c-1.12,1.12 -1.57,2.71 -1.21,4.25l1.6 6.8c0.65,2.76 3.08,4.68 5.91,4.68l6.47 0c3.35,0 6.07,-2.72 6.07,-6.07l0 -7.92c0,-1.4 -1.04,-2.59 -2.36,-2.73zm0.93 10.65c0,2.56 -2.08,4.64 -4.64,4.64l-6.47 0c-2.16,0 -4.02,-1.47 -4.51,-3.57l-1.6 -6.8c-0.25,-1.05 0.06,-2.14 0.83,-2.91l1.09 -1.09 0 2.48c0,0.4 0.32,0.72 0.72,0.72 0.4,0 0.72,-0.32 0.72,-0.72l0 -13.66c0,-0.67 0.47,-1.24 1.07,-1.3 0.34,-0.03 0.67,0.07 0.93,0.3 0.25,0.23 0.39,0.55 0.39,0.89l0 12.62c0,0.4 0.32,0.72 0.72,0.72 0.4,0 0.72,-0.32 0.72,-0.72l0 -1.15c0,-0.34 0.14,-0.66 0.39,-0.89 0.25,-0.23 0.58,-0.34 0.93,-0.3 0.6,0.06 1.07,0.63 1.07,1.3l0 1.8c0,0.4 0.32,0.72 0.72,0.72 0.4,0 0.72,-0.32 0.72,-0.72l0 -1.15c0,-0.34 0.14,-0.66 0.39,-0.89 0.25,-0.23 0.58,-0.34 0.93,-0.3 0.6,0.06 1.07,0.63 1.07,1.3l0 1.8c0,0.4 0.32,0.72 0.72,0.72 0.4,0 0.72,-0.32 0.72,-0.72l0 -1.15c0,-0.34 0.14,-0.66 0.39,-0.89 0.25,-0.23 0.58,-0.34 0.93,-0.3 0.6,0.06 1.07,0.63 1.07,1.3l0 7.92 -0 0zm-7.7 -39.72l-26 0c-1.24,0 -2.25,1.01 -2.25,2.25l0 32.12c0,1.24 1.01,2.25 2.25,2.25l13 0c0.4,0 0.72,-0.32 0.72,-0.72 0,-0.4 -0.32,-0.72 -0.72,-0.72l-13 0c-0.45,0 -0.81,-0.36 -0.81,-0.81l0 -32.12c0,-0.45 0.36,-0.81 0.81,-0.81l26 0c0.45,0 0.81,0.36 0.81,0.81l0 23.71c0,0.4 0.32,0.72 0.72,0.72 0.4,0 0.72,-0.32 0.72,-0.72l0 -23.71c0,-1.24 -1.01,-2.25 -2.25,-2.25zm-18.36 26c-0.4,0 -0.72,0.32 -0.72,0.72 0,0.87 -0.71,1.58 -1.58,1.58 -0.87,0 -1.58,-0.71 -1.58,-1.58 0,-0.87 0.71,-1.58 1.58,-1.58 0.4,0 0.72,-0.32 0.72,-0.72 0,-0.4 -0.32,-0.72 -0.72,-0.72 -1.66,0 -3.01,1.35 -3.01,3.01 0,1.66 1.35,3.01 3.01,3.01 1.66,0 3.01,-1.35 3.01,-3.01 0,-0.4 -0.32,-0.72 -0.72,-0.72zm12.24 -18.36l-9.18 0c-0.4,0 -0.72,0.32 -0.72,0.72 0,0.4 0.32,0.72 0.72,0.72l9.18 0c0.4,0 0.72,-0.32 0.72,-0.72 0,-0.4 -0.32,-0.72 -0.72,-0.72zm3.06 3.06l-12.24 0c-0.4,0 -0.72,0.32 -0.72,0.72 0,0.4 0.32,0.72 0.72,0.72l12.24 0c0.4,0 0.72,-0.32 0.72,-0.72 0,-0.4 -0.32,-0.72 -0.72,-0.72zm-6.88 13.77l-5.35 0c-0.4,0 -0.72,0.32 -0.72,0.72 0,0.4 0.32,0.72 0.72,0.72l5.35 0c0.4,0 0.72,-0.32 0.72,-0.72 0,-0.4 -0.32,-0.72 -0.72,-0.72zm-1.53 3.06l-3.82 0c-0.4,0 -0.72,0.32 -0.72,0.72 0,0.4 0.32,0.72 0.72,0.72l3.82 0c0.4,0 0.72,-0.32 0.72,-0.72 0,-0.4 -0.32,-0.72 -0.72,-0.72zm1.53 -11.47l-5.35 0c-0.4,0 -0.72,0.32 -0.72,0.72 0,0.4 0.32,0.72 0.72,0.72l5.35 0c0.4,0 0.72,-0.32 0.72,-0.72 0,-0.4 -0.32,-0.72 -0.72,-0.72zm0 3.06l-5.35 0c-0.4,0 -0.72,0.32 -0.72,0.72 0,0.4 0.32,0.72 0.72,0.72l5.35 0c0.4,0 0.72,-0.32 0.72,-0.72 0,-0.4 -0.32,-0.72 -0.72,-0.72zm-8.41 -1.53c-0.4,0 -0.72,0.32 -0.72,0.72 0,0.87 -0.71,1.58 -1.58,1.58 -0.87,0 -1.58,-0.71 -1.58,-1.58 0,-0.87 0.71,-1.58 1.58,-1.58 0.4,0 0.72,-0.32 0.72,-0.72 0,-0.4 -0.32,-0.72 -0.72,-0.72 -1.66,0 -3.01,1.35 -3.01,3.01 0,1.66 1.35,3.01 3.01,3.01 1.66,0 3.01,-1.35 3.01,-3.01 0,-0.4 -0.32,-0.72 -0.72,-0.72z"/>
 </g>
</svg>
